<svg width="25" height="25" viewBox="0 0 25 25" fill="none" xmlns="http://www.w3.org/2000/svg">
<path d="M14.7904 12.5207L24.5249 2.78589C25.1584 2.15268 25.1584 1.12887 24.5249 0.495658C23.8917 -0.13755 22.8679 -0.13755 22.2347 0.495658L12.4999 10.2305L2.76536 0.495658C2.13185 -0.13755 1.10834 -0.13755 0.475129 0.495658C-0.158376 1.12887 -0.158376 2.15268 0.475129 2.78589L10.2096 12.5207L0.475129 22.2555C-0.158376 22.8887 -0.158376 23.9125 0.475129 24.5457C0.790695 24.8616 1.20562 25.0203 1.62024 25.0203C2.03487 25.0203 2.44949 24.8616 2.76536 24.5457L12.4999 14.8109L22.2347 24.5457C22.5505 24.8616 22.9652 25.0203 23.3798 25.0203C23.7944 25.0203 24.209 24.8616 24.5249 24.5457C25.1584 23.9125 25.1584 22.8887 24.5249 22.2555L14.7904 12.5207Z" fill="#4F5665"/>
</svg>
