<?xml version="1.0" encoding="UTF-8" standalone="no"?><!DOCTYPE svg PUBLIC "-//W3C//DTD SVG 1.1//EN" "http://www.w3.org/Graphics/SVG/1.1/DTD/svg11.dtd"><svg width="100%" height="100%" viewBox="0 0 36 36" version="1.1" xmlns="http://www.w3.org/2000/svg" xmlns:xlink="http://www.w3.org/1999/xlink" xml:space="preserve" xmlns:serif="http://www.serif.com/" style="fill-rule:evenodd;clip-rule:evenodd;stroke-linejoin:round;stroke-miterlimit:2;"><circle cx="17.848" cy="18.104" r="16.8" style="fill:#f53838;"/><path d="M17.788,0.323c-9.824,0 -17.788,7.964 -17.788,17.788c0,9.825 7.964,17.789 17.788,17.789c9.825,0 17.788,-7.964 17.788,-17.789c0,-9.824 -7.963,-17.788 -17.788,-17.788Zm4.214,12.293l-2.674,0c-0.317,0 -0.669,0.416 -0.669,0.971l0,1.93l3.345,0l-0.506,2.754l-2.839,0l0,8.266l-3.155,0l0,-8.266l-2.863,0l0,-2.754l2.863,0l0,-1.619c0,-2.324 1.612,-4.212 3.824,-4.212l2.674,0l0,2.93Z" style="fill:#fff;fill-rule:nonzero;"/></svg>