<?xml version="1.0" encoding="UTF-8" standalone="no"?>
<!DOCTYPE svg PUBLIC "-//W3C//DTD SVG 1.1//EN" "http://www.w3.org/Graphics/SVG/1.1/DTD/svg11.dtd">
<svg version="1.1" xmlns="http://www.w3.org/2000/svg" xmlns:xlink="http://www.w3.org/1999/xlink" preserveAspectRatio="xMidYMid meet" viewBox="0 0 640 640" width="500" height="500"><defs><path d="M379.43 277.15C379.43 281.59 390.78 288.53 391.79 289.44C392.82 288.53 403.61 281.59 403.61 277.15C403.61 271.29 395.89 268.29 391.79 273.71C387.7 268.29 379.43 271.24 379.43 277.15Z" id="b16bw05NWO"></path><path d="M268.27 239.37C268.27 244.39 281.1 252.23 282.25 253.25C283.41 252.23 295.6 244.39 295.6 239.37C295.6 232.74 286.88 229.35 282.25 235.48C277.63 229.35 268.27 232.69 268.27 239.37Z" id="a3Q93K6Nq"></path><path d="M310.82 320C310.82 323.04 318.58 327.79 319.28 328.4C319.98 327.79 327.36 323.04 327.36 320C327.36 315.99 322.08 313.94 319.28 317.65C316.48 313.94 310.82 315.96 310.82 320Z" id="e1vfxjEO"></path><path d="M443.5 193.24C443.5 198.66 457.37 207.14 458.62 208.25C459.87 207.14 473.05 198.66 473.05 193.24C473.05 186.07 463.62 182.41 458.62 189.03C453.62 182.41 443.5 186.02 443.5 193.24Z" id="fbcmLLECT"></path><path d="M443.5 341.83C443.5 344.31 449.85 348.19 450.43 348.7C451 348.19 457.04 344.31 457.04 341.83C457.04 338.54 452.72 336.86 450.43 339.9C448.14 336.86 443.5 338.52 443.5 341.83Z" id="a4MC21kEau"></path></defs><g><g><g><use xlink:href="#b16bw05NWO" opacity="1" fill="#ffbcbc" fill-opacity="1"></use><g><use xlink:href="#b16bw05NWO" opacity="1" fill-opacity="0" stroke="#000000" stroke-width="1" stroke-opacity="0"></use></g></g><g><use xlink:href="#a3Q93K6Nq" opacity="1" fill="#ffbcbc" fill-opacity="1"></use><g><use xlink:href="#a3Q93K6Nq" opacity="1" fill-opacity="0" stroke="#000000" stroke-width="1" stroke-opacity="0"></use></g></g><g><use xlink:href="#e1vfxjEO" opacity="1" fill="#ffbcbc" fill-opacity="1"></use><g><use xlink:href="#e1vfxjEO" opacity="1" fill-opacity="0" stroke="#000000" stroke-width="1" stroke-opacity="0"></use></g></g><g><use xlink:href="#fbcmLLECT" opacity="1" fill="#ffbcbc" fill-opacity="1"></use><g><use xlink:href="#fbcmLLECT" opacity="1" fill-opacity="0" stroke="#000000" stroke-width="1" stroke-opacity="0"></use></g></g><g><use xlink:href="#a4MC21kEau" opacity="1" fill="#ffbcbc" fill-opacity="1"></use><g><use xlink:href="#a4MC21kEau" opacity="1" fill-opacity="0" stroke="#000000" stroke-width="1" stroke-opacity="0"></use></g></g></g></g></svg>