<?xml version="1.0" encoding="UTF-8" standalone="no"?><!DOCTYPE svg PUBLIC "-//W3C//DTD SVG 1.1//EN" "http://www.w3.org/Graphics/SVG/1.1/DTD/svg11.dtd"><svg width="100%" height="100%" viewBox="0 0 36 36" version="1.1" xmlns="http://www.w3.org/2000/svg" xmlns:xlink="http://www.w3.org/1999/xlink" xml:space="preserve" xmlns:serif="http://www.serif.com/" style="fill-rule:evenodd;clip-rule:evenodd;stroke-linejoin:round;stroke-miterlimit:2;"><circle cx="18" cy="18.105" r="16.8" style="fill:#f53838;"/><path d="M23.404,18.213c0,1.434 -0.569,2.808 -1.583,3.822c-1.013,1.013 -2.388,1.583 -3.821,1.583c-1.433,0 -2.808,-0.57 -3.822,-1.583c-1.013,-1.014 -1.582,-2.388 -1.582,-3.822c0,-0.308 0.032,-0.609 0.088,-0.9l-1.89,0l0,7.2c0,0.501 0.405,0.906 0.906,0.906l12.602,0c0.239,0 0.47,-0.096 0.639,-0.266c0.17,-0.17 0.265,-0.4 0.265,-0.64l0,-7.2l-1.89,0c0.056,0.291 0.088,0.592 0.088,0.9Zm-5.404,3.603c0.473,0 0.942,-0.093 1.379,-0.274c0.437,-0.182 0.834,-0.447 1.169,-0.782c0.335,-0.335 0.6,-0.732 0.781,-1.169c0.181,-0.438 0.274,-0.906 0.274,-1.379c0,-0.474 -0.094,-0.942 -0.275,-1.379c-0.181,-0.438 -0.447,-0.835 -0.781,-1.169c-0.335,-0.335 -0.732,-0.6 -1.17,-0.781c-0.437,-0.181 -0.906,-0.275 -1.379,-0.274c-0.956,0 -1.872,0.38 -2.548,1.056c-0.676,0.676 -1.055,1.593 -1.055,2.548c0,0.956 0.38,1.873 1.056,2.548c0.676,0.676 1.593,1.056 2.549,1.055Zm4.324,-7.386l2.159,0c0.144,0 0.282,-0.057 0.383,-0.158c0.102,-0.101 0.159,-0.239 0.16,-0.382l0,-2.16c0,-0.144 -0.057,-0.282 -0.159,-0.384c-0.102,-0.101 -0.24,-0.158 -0.384,-0.158l-2.159,0c-0.144,0 -0.282,0.057 -0.384,0.158c-0.102,0.102 -0.159,0.24 -0.159,0.384l0,2.16c0.002,0.297 0.245,0.54 0.543,0.54Zm-4.324,-13.511c-4.587,0 -8.986,1.822 -12.229,5.066c-3.243,3.243 -5.065,7.642 -5.065,12.228c0,4.587 1.822,8.986 5.065,12.229c3.243,3.243 7.642,5.066 12.229,5.066c2.271,0 4.52,-0.448 6.618,-1.317c2.098,-0.869 4.005,-2.143 5.611,-3.749c1.606,-1.606 2.88,-3.512 3.749,-5.61c0.869,-2.099 1.316,-4.348 1.316,-6.619c0,-2.271 -0.447,-4.52 -1.316,-6.618c-0.869,-2.098 -2.143,-4.005 -3.749,-5.61c-1.606,-1.606 -3.513,-2.88 -5.611,-3.749c-2.098,-0.869 -4.347,-1.317 -6.618,-1.317Zm9.007,24.3c0,1.101 -0.9,2.002 -2.001,2.002l-14.012,0c-1.101,0 -2.001,-0.901 -2.001,-2.002l0,-14.012c0,-1.1 0.9,-2.001 2.001,-2.001l14.012,0c1.101,0 2.001,0.901 2.001,2.001l0,14.012Z" style="fill:#fff;fill-rule:nonzero;"/></svg>