<svg width="29" height="29" viewBox="0 0 29 29" fill="none" xmlns="http://www.w3.org/2000/svg">
<path d="M27.1411 23.7947H1.859C0.832051 23.7947 0 24.6268 0 25.6537C0 26.6806 0.832051 27.5127 1.859 27.5127H27.1411C28.1679 27.5127 29 26.6806 29 25.6537C29 24.6267 28.1679 23.7947 27.1411 23.7947Z" fill="#F53838"/>
<path d="M16.7308 12.6409H1.859C0.832051 12.6409 0 13.473 0 14.4999C0 15.5268 0.832051 16.3589 1.859 16.3589H16.7308C17.7577 16.3589 18.5898 15.5268 18.5898 14.4999C18.5898 13.4729 17.7577 12.6409 16.7308 12.6409Z" fill="#F53838"/>
<path d="M27.141 12.6411H24.1667C23.1398 12.6411 22.3077 13.4732 22.3077 14.5001C22.3077 15.5271 23.1397 16.3591 24.1667 16.3591H27.141C28.1679 16.3591 29 15.5271 29 14.5001C29 13.4732 28.1679 12.6411 27.141 12.6411Z" fill="#FFBBC0"/>
<path d="M27.1411 1.48707H1.859C0.832051 1.48707 0 2.31918 0 3.34608C0 4.37297 0.832051 5.20508 1.859 5.20508H27.1411C28.1679 5.20508 29 4.37303 29 3.34608C29 2.31918 28.1679 1.48707 27.1411 1.48707Z" fill="#F53838"/>
</svg>
