<?xml version="1.0" encoding="UTF-8" standalone="no"?>
<!DOCTYPE svg PUBLIC "-//W3C//DTD SVG 1.1//EN" "http://www.w3.org/Graphics/SVG/1.1/DTD/svg11.dtd">
<svg version="1.1" xmlns="http://www.w3.org/2000/svg" xmlns:xlink="http://www.w3.org/1999/xlink" preserveAspectRatio="xMidYMid meet" viewBox="0 0 640 640" width="500" height="500"><defs><path d="M351.46 384.73C352.57 387.51 353.12 390.18 353.31 392.62C355.75 392.8 358.42 393.35 361.2 394.47C359.61 395.03 356.76 395.71 353.35 395.91C353.16 399.53 352.23 402.34 351.46 403.78C350.53 401.16 350.1 398.47 349.99 395.94C347.45 395.83 344.76 395.4 342.14 394.47C343.59 393.7 346.4 392.77 350.02 392.58C350.22 389.17 350.89 386.31 351.46 384.73Z" id="bCkb40wb9"></path><linearGradient id="gradienta25Tafklo" gradientUnits="userSpaceOnUse" x1="351.67" y1="386.76" x2="351.67" y2="404.65"><stop style="stop-color: #ffe89e;stop-opacity: 1" offset="0%"></stop><stop style="stop-color: #ffbf1a;stop-opacity: 1" offset="100%"></stop></linearGradient><path d="M281.25 346.32C282.36 349.11 282.91 351.78 283.1 354.21C285.53 354.4 288.21 354.95 290.99 356.06C289.4 356.63 286.55 357.31 283.14 357.51C282.95 361.13 282.02 363.94 281.25 365.38C280.32 362.76 279.89 360.07 279.78 357.53C277.24 357.42 274.55 357 271.93 356.06C273.37 355.29 276.19 354.36 279.8 354.17C280 350.76 280.68 347.91 281.25 346.32Z" id="b1mhNSmJlc"></path><linearGradient id="gradientaHBSdvSy6" gradientUnits="userSpaceOnUse" x1="281.46" y1="348.35" x2="281.46" y2="366.24"><stop style="stop-color: #ffe89e;stop-opacity: 1" offset="0%"></stop><stop style="stop-color: #ffbf1a;stop-opacity: 1" offset="100%"></stop></linearGradient><path d="M285.64 420.97C287.28 425.06 288.09 428.99 288.36 432.57C291.94 432.85 295.87 433.66 299.97 435.29C297.63 436.13 293.43 437.13 288.42 437.42C288.14 442.74 286.77 446.88 285.64 449C284.27 445.15 283.64 441.19 283.47 437.46C279.74 437.29 275.78 436.67 271.93 435.29C274.05 434.16 278.19 432.79 283.51 432.51C283.81 427.5 284.81 423.3 285.64 420.97Z" id="a21lJXOJUj"></path><linearGradient id="gradientb2CxABRhPS" gradientUnits="userSpaceOnUse" x1="285.95" y1="423.95" x2="285.95" y2="450.27"><stop style="stop-color: #ffe89e;stop-opacity: 1" offset="0%"></stop><stop style="stop-color: #ffbf1a;stop-opacity: 1" offset="100%"></stop></linearGradient><path d="M313.98 401.02C312.97 401.02 312.14 401.84 312.14 402.86C312.14 403.88 312.97 404.7 313.98 404.7C315 404.7 315.82 403.88 315.82 402.86C315.82 401.84 315 401.02 313.98 401.02Z" id="gfoh8A3XC"></path><path d="M356.24 348.22C355.22 348.22 354.4 349.04 354.4 350.06C354.4 351.08 355.22 351.9 356.24 351.9C357.26 351.9 358.08 351.08 358.08 350.06C358.08 349.04 357.26 348.22 356.24 348.22Z" id="cLLC0cE4t"></path><path d="M263.62 393.71C262.6 393.71 261.78 394.53 261.78 395.55C261.78 396.57 262.6 397.39 263.62 397.39C264.64 397.39 265.46 396.57 265.46 395.55C265.46 394.53 264.64 393.71 263.62 393.71Z" id="a2EDc0s5R6"></path><path d="M346.15 429.42C345.13 429.42 344.31 430.24 344.31 431.26C344.31 432.28 345.13 433.1 346.15 433.1C347.16 433.1 347.99 432.28 347.99 431.26C347.99 430.24 347.16 429.42 346.15 429.42Z" id="jzGzMihpB"></path><path d="M351.73 342.38C347.57 336.66 335.84 324.45 322.23 321.34" id="ekyBpjxMJ"></path><path d="M255.85 390.61C249.7 387.13 233.97 380.85 220.3 383.63" id="b4L2Adwg"></path><path d="M339.83 436.61C336.67 439.39 329.09 447.29 323.97 456.64" id="lG8FecRly"></path><path d="M410.76 305.25C409.2 309.07 408.43 312.74 408.17 316.08C404.75 316.34 401 317.09 397.1 318.62C399.32 319.4 403.33 320.33 408.11 320.61C408.38 325.58 409.68 329.44 410.76 331.42C412.07 327.82 412.67 324.13 412.83 320.64C416.39 320.49 420.17 319.91 423.84 318.62C421.82 317.57 417.87 316.29 412.79 316.03C412.51 311.35 411.56 307.43 410.76 305.25Z" id="a6ap3x2yd"></path><linearGradient id="gradientax5gLQEnd" gradientUnits="userSpaceOnUse" x1="410.47" y1="308.04" x2="410.47" y2="332.61"><stop style="stop-color: #ffe89e;stop-opacity: 1" offset="0%"></stop><stop style="stop-color: #ffbf1a;stop-opacity: 1" offset="100%"></stop></linearGradient><path d="M449.18 278.05C448.14 280.6 447.62 283.04 447.45 285.26C445.17 285.43 442.68 285.94 440.08 286.95C441.56 287.47 444.23 288.09 447.41 288.28C447.59 291.58 448.46 294.15 449.18 295.47C450.05 293.08 450.45 290.62 450.55 288.3C452.92 288.2 455.43 287.81 457.88 286.95C456.53 286.25 453.91 285.4 450.53 285.23C450.34 282.11 449.71 279.5 449.18 278.05Z" id="bfU1k0bwA"></path><linearGradient id="gradientcm6swokFC" gradientUnits="userSpaceOnUse" x1="448.98" y1="279.91" x2="448.98" y2="296.26"><stop style="stop-color: #ffe89e;stop-opacity: 1" offset="0%"></stop><stop style="stop-color: #ffbf1a;stop-opacity: 1" offset="100%"></stop></linearGradient><path d="M509.3 252.5C507.74 256.33 506.97 259.99 506.71 263.34C503.29 263.59 499.54 264.35 495.63 265.88C497.86 266.66 501.86 267.59 506.65 267.86C506.92 272.83 508.22 276.69 509.3 278.67C510.61 275.08 511.21 271.38 511.37 267.9C514.92 267.75 518.7 267.16 522.37 265.88C520.35 264.82 516.41 263.54 511.33 263.28C511.05 258.6 510.09 254.68 509.3 252.5Z" id="bgZXdmFDU"></path><linearGradient id="gradientg20Ni4Zhs" gradientUnits="userSpaceOnUse" x1="509" y1="255.29" x2="509" y2="279.86"><stop style="stop-color: #ffe89e;stop-opacity: 1" offset="0%"></stop><stop style="stop-color: #ffbf1a;stop-opacity: 1" offset="100%"></stop></linearGradient><path d="M503.14 355.02C500.84 360.64 499.7 366.04 499.32 370.96C494.29 371.34 488.78 372.45 483.03 374.7C486.31 375.84 492.2 377.21 499.24 377.62C499.63 384.93 501.55 390.61 503.14 393.52C505.07 388.23 505.95 382.79 506.18 377.67C511.41 377.45 516.97 376.58 522.37 374.7C519.4 373.14 513.59 371.26 506.12 370.88C505.71 363.99 504.31 358.23 503.14 355.02Z" id="apHjjsBsI"></path><linearGradient id="gradienta13EopRK4N" gradientUnits="userSpaceOnUse" x1="502.7" y1="359.12" x2="502.7" y2="395.27"><stop style="stop-color: #ffe89e;stop-opacity: 1" offset="0%"></stop><stop style="stop-color: #ffbf1a;stop-opacity: 1" offset="100%"></stop></linearGradient><path d="M463.36 327.62C464.79 327.62 465.95 328.75 465.95 330.15C465.95 331.55 464.79 332.68 463.36 332.68C461.93 332.68 460.78 331.55 460.78 330.15C460.78 328.75 461.93 327.62 463.36 327.62Z" id="acqzQ21bB"></path><path d="M404.06 255.11C405.48 255.11 406.64 256.24 406.64 257.64C406.64 259.03 405.48 260.17 404.06 260.17C402.63 260.17 401.47 259.03 401.47 257.64C401.47 256.24 402.63 255.11 404.06 255.11Z" id="a2cICnqxyG"></path><path d="M534.04 317.58C535.47 317.58 536.63 318.71 536.63 320.11C536.63 321.51 535.47 322.64 534.04 322.64C532.61 322.64 531.46 321.51 531.46 320.11C531.46 318.71 532.61 317.58 534.04 317.58Z" id="g19wKnBZel"></path><path d="M418.22 366.63C419.65 366.63 420.8 367.76 420.8 369.16C420.8 370.55 419.65 371.68 418.22 371.68C416.79 371.68 415.64 370.55 415.64 369.16C415.64 367.76 416.79 366.63 418.22 366.63Z" id="b2RuBBdDI"></path><path d="M410.39 247.08C416.23 239.23 432.69 222.46 451.78 218.18" id="cdILE14q9"></path><path d="M544.94 313.33C553.58 308.54 575.65 299.92 594.84 303.75" id="ckHNXlG6w"></path><path d="M324.09 364.93C324.83 366.78 325.2 368.56 325.32 370.18C326.94 370.3 328.72 370.67 330.57 371.41C329.52 371.78 327.62 372.24 325.35 372.37C325.22 374.78 324.6 376.65 324.09 377.61C323.47 375.87 323.18 374.07 323.11 372.39C321.42 372.31 319.63 372.03 317.89 371.41C318.85 370.9 320.72 370.28 323.13 370.15C323.26 367.88 323.71 365.98 324.09 364.93Z" id="jhK9dZWqk"></path><linearGradient id="gradientadY6zunHv" gradientUnits="userSpaceOnUse" x1="324.23" y1="366.28" x2="324.23" y2="378.18"><stop style="stop-color: #ffe89e;stop-opacity: 1" offset="0%"></stop><stop style="stop-color: #ffbf1a;stop-opacity: 1" offset="100%"></stop></linearGradient><path d="M427.09 376.5C431.51 380.32 442.16 391.18 449.35 404.01" id="bDWK6B607"></path></defs><g><g><g><use xlink:href="#bCkb40wb9" opacity="1" fill="url(#gradienta25Tafklo)"></use><g><use xlink:href="#bCkb40wb9" opacity="1" fill-opacity="0" stroke="#000000" stroke-width="1" stroke-opacity="0"></use></g></g><g><use xlink:href="#b1mhNSmJlc" opacity="1" fill="url(#gradientaHBSdvSy6)"></use><g><use xlink:href="#b1mhNSmJlc" opacity="1" fill-opacity="0" stroke="#000000" stroke-width="1" stroke-opacity="0"></use></g></g><g><use xlink:href="#a21lJXOJUj" opacity="1" fill="url(#gradientb2CxABRhPS)"></use><g><use xlink:href="#a21lJXOJUj" opacity="1" fill-opacity="0" stroke="#000000" stroke-width="1" stroke-opacity="0"></use></g></g><g><use xlink:href="#gfoh8A3XC" opacity="1" fill="#2f235a" fill-opacity="1"></use><g><use xlink:href="#gfoh8A3XC" opacity="1" fill-opacity="0" stroke="#000000" stroke-width="1" stroke-opacity="0"></use></g></g><g><use xlink:href="#cLLC0cE4t" opacity="1" fill="#fe9076" fill-opacity="1"></use><g><use xlink:href="#cLLC0cE4t" opacity="1" fill-opacity="0" stroke="#000000" stroke-width="1" stroke-opacity="0"></use></g></g><g><use xlink:href="#a2EDc0s5R6" opacity="1" fill="#ffa400" fill-opacity="1"></use><g><use xlink:href="#a2EDc0s5R6" opacity="1" fill-opacity="0" stroke="#000000" stroke-width="1" stroke-opacity="0"></use></g></g><g><use xlink:href="#jzGzMihpB" opacity="1" fill="#23bb86" fill-opacity="1"></use><g><use xlink:href="#jzGzMihpB" opacity="1" fill-opacity="0" stroke="#000000" stroke-width="1" stroke-opacity="0"></use></g></g><g><use xlink:href="#ekyBpjxMJ" opacity="1" fill="#000000" fill-opacity="0"></use><g><use xlink:href="#ekyBpjxMJ" opacity="1" fill-opacity="0" stroke="#fe9076" stroke-width="1.6" stroke-opacity="1"></use></g></g><g><use xlink:href="#b4L2Adwg" opacity="1" fill="#000000" fill-opacity="0"></use><g><use xlink:href="#b4L2Adwg" opacity="1" fill-opacity="0" stroke="#ffa400" stroke-width="1.6" stroke-opacity="1"></use></g></g><g><use xlink:href="#lG8FecRly" opacity="1" fill="#000000" fill-opacity="0"></use><g><use xlink:href="#lG8FecRly" opacity="1" fill-opacity="0" stroke="#23bb86" stroke-width="1.6" stroke-opacity="1"></use></g></g><g><use xlink:href="#a6ap3x2yd" opacity="1" fill="url(#gradientax5gLQEnd)"></use><g><use xlink:href="#a6ap3x2yd" opacity="1" fill-opacity="0" stroke="#000000" stroke-width="1" stroke-opacity="0"></use></g></g><g><use xlink:href="#bfU1k0bwA" opacity="1" fill="url(#gradientcm6swokFC)"></use><g><use xlink:href="#bfU1k0bwA" opacity="1" fill-opacity="0" stroke="#000000" stroke-width="1" stroke-opacity="0"></use></g></g><g><use xlink:href="#bgZXdmFDU" opacity="1" fill="url(#gradientg20Ni4Zhs)"></use><g><use xlink:href="#bgZXdmFDU" opacity="1" fill-opacity="0" stroke="#000000" stroke-width="1" stroke-opacity="0"></use></g></g><g><use xlink:href="#apHjjsBsI" opacity="1" fill="url(#gradienta13EopRK4N)"></use><g><use xlink:href="#apHjjsBsI" opacity="1" fill-opacity="0" stroke="#000000" stroke-width="1" stroke-opacity="0"></use></g></g><g><use xlink:href="#acqzQ21bB" opacity="1" fill="#2f235a" fill-opacity="1"></use><g><use xlink:href="#acqzQ21bB" opacity="1" fill-opacity="0" stroke="#000000" stroke-width="1" stroke-opacity="0"></use></g></g><g><use xlink:href="#a2cICnqxyG" opacity="1" fill="#fe9076" fill-opacity="1"></use><g><use xlink:href="#a2cICnqxyG" opacity="1" fill-opacity="0" stroke="#000000" stroke-width="1" stroke-opacity="0"></use></g></g><g><use xlink:href="#g19wKnBZel" opacity="1" fill="#ffa400" fill-opacity="1"></use><g><use xlink:href="#g19wKnBZel" opacity="1" fill-opacity="0" stroke="#000000" stroke-width="1" stroke-opacity="0"></use></g></g><g><use xlink:href="#b2RuBBdDI" opacity="1" fill="#23bb86" fill-opacity="1"></use><g><use xlink:href="#b2RuBBdDI" opacity="1" fill-opacity="0" stroke="#000000" stroke-width="1" stroke-opacity="0"></use></g></g><g><use xlink:href="#cdILE14q9" opacity="1" fill="#000000" fill-opacity="0"></use><g><use xlink:href="#cdILE14q9" opacity="1" fill-opacity="0" stroke="#fe9076" stroke-width="1.6" stroke-opacity="1"></use></g></g><g><use xlink:href="#ckHNXlG6w" opacity="1" fill="#000000" fill-opacity="0"></use><g><use xlink:href="#ckHNXlG6w" opacity="1" fill-opacity="0" stroke="#ffa400" stroke-width="1.6" stroke-opacity="1"></use></g></g><g><use xlink:href="#jhK9dZWqk" opacity="1" fill="url(#gradientadY6zunHv)"></use><g><use xlink:href="#jhK9dZWqk" opacity="1" fill-opacity="0" stroke="#000000" stroke-width="1" stroke-opacity="0"></use></g></g><g><use xlink:href="#bDWK6B607" opacity="1" fill="#000000" fill-opacity="0"></use><g><use xlink:href="#bDWK6B607" opacity="1" fill-opacity="0" stroke="#23bb86" stroke-width="1.6" stroke-opacity="1"></use></g></g></g></g></svg>