<?xml version="1.0" encoding="UTF-8" standalone="no"?><!DOCTYPE svg PUBLIC "-//W3C//DTD SVG 1.1//EN" "http://www.w3.org/Graphics/SVG/1.1/DTD/svg11.dtd"><svg width="100%" height="100%" viewBox="0 0 36 36" version="1.1" xmlns="http://www.w3.org/2000/svg" xmlns:xlink="http://www.w3.org/1999/xlink" xml:space="preserve" xmlns:serif="http://www.serif.com/" style="fill-rule:evenodd;clip-rule:evenodd;stroke-linejoin:round;stroke-miterlimit:2;"><circle cx="18.011" cy="18.105" r="16.8" style="fill:#f53838;"/><path d="M18.005,0.323c-9.808,0 -17.76,7.951 -17.76,17.76c0,9.808 7.952,17.76 17.76,17.76c9.809,0 17.76,-7.952 17.76,-17.76c0,-9.809 -7.951,-17.76 -17.76,-17.76Zm7.224,14.548c0.008,0.152 0.01,0.303 0.01,0.451c0,4.625 -3.517,9.955 -9.951,9.955c-1.902,0.003 -3.763,-0.543 -5.362,-1.572c0.272,0.033 0.552,0.046 0.835,0.046c1.639,0 3.146,-0.557 4.343,-1.497c-0.729,-0.014 -1.436,-0.255 -2.021,-0.691c-0.586,-0.435 -1.021,-1.042 -1.246,-1.736c0.524,0.1 1.064,0.079 1.578,-0.061c-0.791,-0.16 -1.503,-0.589 -2.015,-1.214c-0.511,-0.625 -0.791,-1.408 -0.791,-2.216l0,-0.042c0.472,0.261 1.012,0.42 1.585,0.438c-0.742,-0.494 -1.267,-1.253 -1.468,-2.122c-0.202,-0.868 -0.063,-1.781 0.386,-2.551c0.879,1.08 1.975,1.964 3.217,2.594c1.241,0.63 2.602,0.993 3.993,1.063c-0.177,-0.75 -0.101,-1.538 0.216,-2.241c0.317,-0.703 0.858,-1.281 1.538,-1.645c0.679,-0.364 1.46,-0.493 2.221,-0.367c0.761,0.125 1.459,0.499 1.985,1.062c0.783,-0.155 1.534,-0.442 2.22,-0.849c-0.261,0.811 -0.807,1.499 -1.537,1.937c0.693,-0.083 1.371,-0.27 2.009,-0.553c-0.469,0.703 -1.06,1.316 -1.745,1.811Z" style="fill:#fff;fill-rule:nonzero;"/></svg>